<svg xmlns="http://www.w3.org/2000/svg" xmlns:svgjs="http://svgjs.com/svgjs" xmlns:xlink="http://www.w3.org/1999/xlink" width="288" height="288"><svg xmlns="http://www.w3.org/2000/svg" width="288" height="288" enable-background="new 0 0 100 100" viewBox="0 0 100 100"><path fill="#999" d="M88,77.2V22.8c4-0.9,7-4.5,7-8.8c0-5-4-9-9-9s-9,4-9,9c0,4.3,3,7.9,7,8.8V48H64V22.8c4-0.9,7-4.5,7-8.8c0-5-4-9-9-9	s-9,4-9,9c0,4.3,3,7.9,7,8.8V48H40V22.8c4-0.9,7-4.5,7-8.8c0-5-4-9-9-9s-9,4-9,9c0,4.3,3,7.9,7,8.8V48H16V22.8c4-0.9,7-4.5,7-8.8
	c0-5-4-9-9-9s-9,4-9,9c0,4.3,3,7.9,7,8.8V50c0,1.1,0.9,2,2,2h22v25.2c-4,0.9-7,4.5-7,8.8c0,5,4,9,9,9s9-4,9-9c0-4.3-3-7.9-7-8.8V52
	h20v25.2c-4,0.9-7,4.5-7,8.8c0,5,4,9,9,9s9-4,9-9c0-4.3-3-7.9-7-8.8V52h20v25.2c-4,0.9-7,4.5-7,8.8c0,5,4,9,9,9s9-4,9-9
	C95,81.7,92,78.1,88,77.2z M9,14c0-2.8,2.2-5,5-5s5,2.2,5,5s-2.2,5-5,5S9,16.8,9,14z M43,86c0,2.8-2.2,5-5,5s-5-2.2-5-5s2.2-5,5-5
	S43,83.2,43,86z M38,19c-2.8,0-5-2.2-5-5s2.2-5,5-5s5,2.2,5,5S40.8,19,38,19z M67,86c0,2.8-2.2,5-5,5s-5-2.2-5-5s2.2-5,5-5
	S67,83.2,67,86z M62,19c-2.8,0-5-2.2-5-5s2.2-5,5-5s5,2.2,5,5S64.8,19,62,19z M81,14c0-2.8,2.2-5,5-5s5,2.2,5,5s-2.2,5-5,5
	S81,16.8,81,14z M86,91c-2.8,0-5-2.2-5-5s2.2-5,5-5s5,2.2,5,5S88.8,91,86,91z" class="color000 svgShape"/></svg></svg>