<svg xmlns="http://www.w3.org/2000/svg" xmlns:svgjs="http://svgjs.com/svgjs" xmlns:xlink="http://www.w3.org/1999/xlink" width="288" height="288"><svg xmlns="http://www.w3.org/2000/svg" width="288" height="288" viewBox="0 0 46 46"><path style="line-height:normal;text-indent:0;text-align:start;text-decoration-line:none;text-decoration-style:solid;text-decoration-color:#000;text-transform:none;block-progression:tb;isolation:auto;mix-blend-mode:normal" fill="#999" d="M23 1006.362c12.708 0 23 10.292 23 23 0 12.709-10.292 23-23 23s-23-10.291-23-23c0-12.708 10.292-23 23-23zm-11.512 9.983a.498.498 0 0 0-.494.507v4c-.01.677 1.01.677 1 0v-.792l1.147 1.146c.47.49 1.197-.236.707-.707l-1.166-1.166a1.503 1.503 0 0 0 1.312-1.48c0-.823-.678-1.5-1.5-1.5H11.586c-.032-.01-.065-.01-.098-.01zm21.334.01v.01a.5.5 0 0 0-.492.42l-.326 2.002c-.084.526.603.801.906.363a.668.668 0 0 1 .926.098.674.674 0 0 1-.05.933.665.665 0 0 1-.934-.01c-.481-.468-1.18.259-.694.721.64.618 1.665.623 2.313.014.647-.61.702-1.634.125-2.31a1.668 1.668 0 0 0-1.455-.577l.107-.662h1.25c.676.01.676-1.01 0-1zm-13.334.01c-.022 0-.044 0-.066.01h-.033c-.015 0-.03.01-.043.012h-.004a.475.475 0 0 0-.088.039c-.007 0-.015.01-.022.014-.007 0-.014.01-.021.016h-.002l-.04.029-.026.025-.006.01-.994.982c-.493.468.229 1.198.703.71l.154-.153v2.795c-.01.676 1.01.676 1 0v-3.986a.49.49 0 0 0-.115-.317h-.002a.498.498 0 0 0-.107-.095h-.003c-.013-.01-.027-.015-.04-.022h-.003c-.014-.01-.028-.014-.043-.02h-.002c-.005 0-.01-.01-.015-.01-.01 0-.021-.01-.032-.01h-.002a.447.447 0 0 0-.095-.019H19.488zm6.871.01a1.504 1.504 0 0 0-1.357 1.494c-.01.676 1.01.676 1 0a.498.498 0 0 1 .853-.354.497.497 0 0 1 .108.545.496.496 0 0 1-.461.309c-.045-.001-.09 0-.135.016h-.013c-.012 0-.023.01-.034.012a.53.53 0 0 0-.076.037c-.007 0-.014.01-.021.014h-.004c-.01.01-.02.013-.03.019-.01.01-.02.017-.03.025l-.013.012c-.005.01-.01.012-.015.018-.007.01-.013.014-.02.02l-.01.013-.019.027c-.005.01-.01.016-.016.024l-.007.014-.014.025c-.003.01-.007.014-.01.022l-.008.02c-.002.01-.005.014-.007.02l-.004.016a.5.5 0 0 0-.02.117l-.002.023.002.02.002.03v.01a.399.399 0 0 0 .027.109l.01.024c.003.01.007.016.01.023.004.01.009.016.014.024.002.01.005.01.008.016.005.01.01.016.015.023l.01.014a.499.499 0 0 0 .09.096l.008.01c.01.01.019.013.029.019.008 0 .017.01.025.014.006 0 .012.01.018.012l.014.01c.011.01.023.012.035.018.01 0 .022.01.033.012h.025c.011 0 .022.01.033.01.011 0 .022.01.034.012h.066c.204 0 .383.12.461.308a.497.497 0 0 1-.107.545.497.497 0 0 1-.545.11.496.496 0 0 1-.309-.461c.01-.677-1.01-.677-1 0 0 .605.367 1.155.926 1.386.559.232 1.207.102 1.635-.326a1.503 1.503 0 0 0 .324-1.635 1.48 1.48 0 0 0-.281-.427 1.47 1.47 0 0 0 .28-.426 1.503 1.503 0 0 0-1.527-2.068zm-14.365.988h.5c.286 0 .5.214.5.5 0 .286-.214.5-.5.5h-.5zm.506 5a2.508 2.508 0 0 0-2.5 2.5c0 .769.406 1.442 1 1.911v4.088a.5.5 0 0 0 .5.5H18v1.586c-.594.47-1 1.144-1 1.914 0 1.375 1.125 2.5 2.5 2.5s2.5-1.125 2.5-2.5c-.001-.769-.406-1.441-1-1.91v-1.588h4v1.586c-.594.47-1 1.144-1 1.914 0 1.375 1.125 2.5 2.5 2.5s2.5-1.125 2.5-2.5c-.001-.769-.406-1.441-1-1.91v-1.588h6.5a.5.5 0 0 0 .5-.5v-4.09c.593-.469.999-1.141 1-1.91 0-1.375-1.125-2.5-2.5-2.5a2.508 2.508 0 0 0-2.5 2.5c0 .77.406 1.443 1 1.912v1.588h-4v-1.59c.593-.469.999-1.141 1-1.91 0-1.375-1.125-2.5-2.5-2.5a2.508 2.508 0 0 0-2.5 2.5c0 .77.406 1.443 1 1.912v1.588h-4v-1.59c.593-.469.999-1.141 1-1.91 0-1.375-1.125-2.5-2.5-2.5a2.508 2.508 0 0 0-2.5 2.5c0 .77.406 1.443 1 1.912v1.588h-4v-1.59c.593-.469.999-1.141 1-1.91 0-1.375-1.125-2.5-2.5-2.5zm0 1c.834 0 1.499.664 1.5 1.497 0 .536-.286 1.03-.75 1.297a.5.5 0 0 0-.25.434v2.271a.5.5 0 0 0 .5.5h5a.5.5 0 0 0 .5-.5v-2.27a.5.5 0 0 0-.25-.433 1.496 1.496 0 0 1-.75-1.297c0-.834.666-1.5 1.5-1.5s1.499.665 1.5 1.498c0 .536-.286 1.03-.75 1.297a.5.5 0 0 0-.25.434v2.271a.5.5 0 0 0 .5.5h5a.5.5 0 0 0 .5-.5v-2.27a.5.5 0 0 0-.25-.433 1.496 1.496 0 0 1-.75-1.297c0-.834.666-1.5 1.5-1.5s1.499.665 1.5 1.498c0 .536-.286 1.03-.75 1.297a.5.5 0 0 0-.25.434v2.271a.5.5 0 0 0 .5.5h5a.5.5 0 0 0 .5-.5v-2.27a.5.5 0 0 0-.25-.433 1.497 1.497 0 0 1-.75-1.297c0-.834.666-1.5 1.5-1.5s1.499.665 1.5 1.498a1.5 1.5 0 0 1-.75 1.297.5.5 0 0 0-.25.434v3.771h-6.5a.5.5 0 0 0-.5.5v2.272a.5.5 0 0 0 .25.431 1.499 1.499 0 0 1-.75 2.797c-.834 0-1.5-.665-1.5-1.5a1.5 1.5 0 0 1 .75-1.299.5.5 0 0 0 .25-.431v-2.27a.5.5 0 0 0-.5-.5h-5a.5.5 0 0 0-.5.5v2.272a.5.5 0 0 0 .25.431 1.499 1.499 0 0 1-.75 2.797c-.834 0-1.5-.666-1.5-1.5a1.5 1.5 0 0 1 .75-1.299.5.5 0 0 0 .25-.431v-2.27a.5.5 0 0 0-.5-.5H12v-3.77a.5.5 0 0 0-.25-.433 1.496 1.496 0 0 1-.75-1.297c0-.834.666-1.5 1.5-1.5zm13.848 14.985a.504.504 0 0 0-.467.366l-.873 3a.5.5 0 0 0 .48.64h1.498v.5c-.01.676 1.01.676 1 0v-.884a.5.5 0 0 0 0-.229v-1.805c.01-.676-1.01-.676-1 0v1.418h-.832l.688-2.359a.5.5 0 0 0-.494-.646zm-6.875.015c-.823 0-1.5.677-1.5 1.5-.01.676 1.01.676 1 0 0-.287.214-.5.5-.5.285 0 .5.213.5.5a.82.82 0 0 1-.202.578c-.132.166-.346.334-.595.521-.25.188-.535.395-.776.697-.24.303-.42.718-.42 1.203a.5.5 0 0 0 .5.5h2c.677.01.677-1.01 0-1h-1.326c.016-.023.01-.057.028-.08.132-.166.346-.333.595-.521.25-.188.535-.395.776-.697.24-.302.42-.716.42-1.201 0-.823-.678-1.5-1.5-1.5z" class="color000 svgShape" color="#000" font-family="sans-serif" font-weight="400" overflow="visible" transform="translate(0 -1006.362)"/></svg></svg>