<svg xmlns="http://www.w3.org/2000/svg" xmlns:svgjs="http://svgjs.com/svgjs" xmlns:xlink="http://www.w3.org/1999/xlink" width="288" height="288"><svg xmlns="http://www.w3.org/2000/svg" width="288" height="288" enable-background="new 0 0 512 512" viewBox="0 0 512 512"><path fill="#999" d="M59.123 439.648c1.073 6.727 6.875 11.677 13.687 11.677h354.154c18.711 0 37.006-7.207 49.689-20.998 3.078-3.339 5.912-7.032 8.627-10.874H55.902L59.123 439.648zM51.407 373.52h443.258c3.826 0 7.381 1.029 10.557 2.691 9.808-36.141 7.636-79.069-11.59-116.78-4.644-9.078-11.642-16.771-19.82-22.8L303.747 111.334c-44.699-32.849-98.685-50.659-154.195-50.659H14.929c-8.526 0-15.03 7.624-13.687 16.043l47.38 297.083C49.545 373.688 50.453 373.52 51.407 373.52zM152.259 293.849c0 2.544-2.062 4.606-4.606 4.606H80.279c-2.544 0-4.606-2.062-4.606-4.606v-10.79c0-2.544 2.062-4.606 4.606-4.606h67.375c2.543 0 4.606 2.062 4.606 4.606V293.849zM149.552 95.326c48.372 0 94.596 15.177 133.682 43.937l109.496 80.667H59.183L39.294 95.326H149.552zM494.665 384.371H51.409c-6.691 0-12.115 5.424-12.115 12.115s5.424 12.115 12.115 12.115h443.257c6.691 0 12.115-5.424 12.115-12.115S501.356 384.371 494.665 384.371z" class="color000 svgShape"/></svg></svg>