<svg xmlns="http://www.w3.org/2000/svg" xmlns:svgjs="http://svgjs.com/svgjs" xmlns:xlink="http://www.w3.org/1999/xlink" width="288" height="288"><svg xmlns="http://www.w3.org/2000/svg" width="288" height="288" viewBox="0 0 32 32"><g fill="#999" class="color000 svgShape" transform="translate(-179 -1532.362)"><path fill="none" stroke="#999" stroke-linecap="round" stroke-linejoin="round" d="M198.507 1549.362h1c.554 0 1 .446 1 1v8c0 .554.446 1 1 1h1" class="colorStroke576d7e svgStroke"/><path fill="none" stroke="#999" stroke-linecap="round" stroke-linejoin="round" d="M201.507 1559.362h1c.554 0 1-.446 1-1v-8.924" class="colorStroke576d7e svgStroke"/><path fill="none" stroke="#999" stroke-linecap="round" stroke-linejoin="round" d="m200.014 1537.865 1.001.482.85 1.822" class="colorStroke34485c svgStroke"/><rect width="2" height="3" x="202.5" y="1546.362" class="color60c5b8 svgShape" rx="0" ry="0"/><path fill-rule="evenodd" d="M201 1540.362v3h1l-1 4h5l-1-3h1l-1-4h-2.024l-.576-1z" class="color25b39e svgShape"/><path d="M197 1545.362h2v5h-2z" class="color34485c svgShape"/><rect width="13" height="25" x="185" y="1535.362" class="colorf05542 svgShape" rx="1" ry="1"/><rect width="15" height="2" x="184" y="1559.362" class="color34485c svgShape" rx="1" ry="1"/><path fill="#fff" d="M187 1538.362h9v7h-9z" class="color4bbfeb svgShape"/><rect width="15" height="1" x="184" y="1560.362" class="color34485c svgShape" rx="0" ry="0"/><path fill="none" stroke="#999" stroke-dashoffset="2" stroke-linecap="round" stroke-linejoin="round" stroke-width="1.113" d="M186.556 1537.918h9.887v7.887h-9.887z" class="colorStroke34485c svgStroke"/><path fill="#fff" d="M194.522 1553.565c0 1.711-1.353 3.098-3.022 3.098-1.669 0-3.022-1.387-3.022-3.098 0-1.711 3.022-4.902 3.022-4.902s3.022 3.19 3.022 4.902z" class="color4bbfeb svgShape"/><path fill="none" stroke="#999" stroke-linecap="round" stroke-linejoin="round" d="M193 1553.082a1.955 2 0 0 1-.978 1.732" class="colorStroke78c8f0 svgStroke"/></g></svg></svg>