<svg xmlns="http://www.w3.org/2000/svg" xmlns:svgjs="http://svgjs.com/svgjs" xmlns:xlink="http://www.w3.org/1999/xlink" width="288" height="288"><svg xmlns="http://www.w3.org/2000/svg" width="288" height="288" viewBox="0 0 48 48"><g fill="#ad2020" class="color000 svgShape" data-name="Plate Number"><rect width="46" height="24" x="1" y="10" fill="#d4d4d4" class="color374f68 svgShape" rx="2"/><path fill="#fff" d="M47 12v20H25A22.06 22.06 0 0 1 3 10h42a2 2 0 0 1 2 2Z" class="color425b72 svgShape"/><path fill="#999" d="M45 9H3a3 3 0 0 0-3 3v20a3 3 0 0 0 3 3h42a3 3 0 0 0 3-3V12a3 3 0 0 0-3-3Zm1 23a1 1 0 0 1-1 1H3a1 1 0 0 1-1-1V12a1 1 0 0 1 1-1h42a1 1 0 0 1 1 1Z" class="color231f20 svgShape"/><path fill="#999" d="M10 14H8a3 3 0 0 0-3 3v4a3 3 0 0 0 3 3h2a3 3 0 0 0 3-3v-4a3 3 0 0 0-3-3zm-2 2h2l-3 4v-3a1 1 0 0 1 1-1zm2 6H8l3-4v3a1 1 0 0 1-1 1zm20-8h-2a3 3 0 0 0-3 3v4a3 3 0 0 0 3 3h2a3 3 0 0 0 3-3v-4a3 3 0 0 0-3-3zm-2 2h2l-3 4v-3a1 1 0 0 1 1-1zm2 6h-2l3-4v3a1 1 0 0 1-1 1zm-12-2h3v3a1 1 0 0 0 2 0v-8a1 1 0 0 0-2 0v3h-3a1 1 0 0 1-1-1v-2a1 1 0 0 0-2 0v2a3 3 0 0 0 3 3zm24-4a1 1 0 0 0 0-2h-5a2 2 0 0 0-2 2v2a2 2 0 0 0 2 2h4v2h-5a1 1 0 0 0 0 2h5a2 2 0 0 0 2-2v-2a2 2 0 0 0-2-2h-4v-2zM26 28h-4a1 1 0 0 0 0 2h4a1 1 0 0 0 0-2zm-8.71-.71-.29.3-.29-.3a1 1 0 0 0-1.42 1.42l.3.29-.3.29a1 1 0 0 0 1.42 1.42l.29-.3.29.3a1 1 0 0 0 1.42-1.42l-.3-.29.3-.29a1 1 0 0 0-1.42-1.42zm14 0-.29.3-.29-.3a1 1 0 0 0-1.42 1.42l.3.29-.3.29a1 1 0 0 0 1.42 1.42l.29-.3.29.3a1 1 0 0 0 1.42-1.42l-.3-.29.3-.29a1 1 0 0 0-1.42-1.42z" class="color231f20 svgShape"/></g></svg></svg>